<svg xmlns="http://www.w3.org/2000/svg" viewBox="0 0 504.99 747.7" style="background: rgb(255,51,120);background: linear-gradient(90deg, rgba(255,51,120,1) 0%, rgba(221,131,158,1) 28%, rgba(202,145,255,1) 58%, rgba(100,212,255,1) 100%);-webkit-background-clip: text;-webkit-text-fill-color: transparent;">
    <g id="レイヤー_2" data-name="レイヤー 2">
        <g id="レイヤー_1-2" data-name="レイヤー 1">
            <path d="M217.09,100.87a18.6,18.6,0,0,1,5,14.35c-1,9.35-9.08,13.72-9.71,14.05a52.94,52.94,0,0,0,15.89,23.16q7-2.28,14.2-4.48c2.5-.77,5-1.51,7.47-2.24,1.4,4.67,2.66,11.67,0,18.68-5,13.14-21.25,19.63-20.18,21.67.64,1.22,6.21-1.66,7.48,0,2.47,3.24-17.42,15.81-20.18,37.36A34.75,34.75,0,0,0,217,233.7c1.56,10.55,8,16.4,9,31.56,1.16,16.64-6.87,34.68-19.25,53.47A197.26,197.26,0,0,1,170,360.16c-20.45,18-42.87,53.55-48.57,130.76,6.82-6.2,16.54-12.79,27.64-11.95,14.17,1.07,19,13.35,29.14,11.95,15-2.05,26.8-31.81,20.93-37.36-5.65-5.32-35.07,10.25-33.63,19.43,1.71,10.9,48.25,21.38,64.26,2.24,6.2-7.4,8.62-20.19,3.74-24.66-6.63-6.06-28.2,1.84-29.14,10.47-1.32,12.14,37.45,33,71,26.15,13.9-2.83,31.22-11.3,30.64-18.68-.54-6.87-16.5-12.5-17.93-10.46s9.11,16,24.65,20.92c14.67,4.66,33.11,1.1,43.34-11.21,10.08-12.13,10.81-31.12,6.73-32.88-3.86-1.66-16.08,10.29-14.95,20.92,1.44,13.53,24.32,23.16,41.1,18.69,9.87-2.64,20-10.77,18.68-15.7-1.85-6.91-26.65-8.79-29.14-3-2.12,5,11.38,18.45,26.9,22.42,9.67,2.47,13.68-.39,26.15,1.5a73.47,73.47,0,0,1,25.41,9A192.61,192.61,0,0,0,444.57,429a179.85,179.85,0,0,0-16.76-33.71c-10.37-16.19-36.19-50.38-46.06-63.21-6.27-8.15-16.48-21.49-29.24-40.68-4.58-6.88-9.5-14.7-14.86-23.91-2.88-5-14.6-31-38-83.19-8.48-18.88-15.76-35.34-11.18-38.86,2.74-2.11,8.85,1.16,13.61,4.29a87.54,87.54,0,0,0,13.14-38.51c.54-6,4.35-48.86-27.08-69.53-2-1.34-28.05-17.82-56.11-5.27-1.91.85-28.89,13.4-32.93,42.12-2.2,15.59,3.49,27.93,6.07,32.81l9,3Q215.6,107.6,217.09,100.87Z"/>
            <path d="M234.28,38.86c17.6-19.57,62-3.4,67.25-1.5C330.8,48,351.33,69,371,97.14c34.55,49.31,29.13,67.12,59.78,130,37.78,77.53,64.92,89.28,72.48,144.21,4.63,33.67-1,62.21-6,79.95a513.35,513.35,0,0,0-11.21-54.55C477.3,363.3,468.54,330,445,295.15a237.82,237.82,0,0,0-40.35-45.58c10.93,8.68,53.92,44.86,64.26,108.35,7.86,48.23-7.36,86.18-14.19,100.87,1.63-9.46,15.64-97.91-39.61-143.46A104.2,104.2,0,0,0,383,297.39,506.79,506.79,0,0,1,424.07,331c10,9.13,18.4,17.47,21.67,20.92,25.13,26.58,37,69.22,42.59,98.63a492.23,492.23,0,0,0-92.65-111.33,490,490,0,0,0-79.21-57.54c59.46,12.06,106.78,50.18,121.8,100.88,8.82,29.77,4.32,56.53,0,72.48q-25.69-45.26-51.56-90.42Q355.44,310,323.94,255.55c41.76.17,62.07,16.73,69.49,23.91,21.37,20.66,24.52,49.1,29.89,104.61a563.63,563.63,0,0,1,2.24,75.47c-20.23-37.75-33.22-64.16-38.85-80-1.54-4.33-5.48-16.12-16.44-25.41a50,50,0,0,0-12-7.47,193,193,0,0,1,42.6,118.81,410.35,410.35,0,0,0-41.85-76.22c-29-41.66-39.07-39.46-62-77.71-8.56-14.26-21-42.16-39.6-100.13-2.59-8.08-5.32-17.09-5.23-29.14.2-27.19,14.43-31.17,14.94-50.06,1-34.5-45.71-49.91-38.85-81.45A26.39,26.39,0,0,1,234.28,38.86Z"/>
            <path d="M304.51,37.36A65.48,65.48,0,0,1,343.37,0a72.58,72.58,0,0,0,3.74,23.91,72.76,72.76,0,0,0,13.45,23.91,60,60,0,0,1-31.39,3,58.14,58.14,0,0,1-15.69-5.23C311,63.7,306.93,77.32,300,78.46c-13.21,2.18-36.13-41.56-27.65-50.07C276.64,24.13,288.89,28.62,304.51,37.36Z"/>
            <path d="M385.76,88.78,343.33,68.49l-27.14-9.94-.53-15.08,1.81-.64a154.21,154.21,0,0,0,32.77-16,154.68,154.68,0,0,0,16.09-12l2.53-2.16,17.66,35.05-30.33,4.77,27.5,3.89ZM321.29,54.84l24.19,8.87L380,80.21l-1.23-19.27-40.23-5.7-2.22.35-12.05-2.37.88-5.16L338.47,50l40.15-6.31L367.17,20.91a158.26,158.26,0,0,1-14.09,10.26A158.71,158.71,0,0,1,321,47.11Z"/>
            <path d="M333.17,65.61c.09-.42,10.26,1.13,53.17,9.49l5.83-.31,16.58,5.54L409,82a19.28,19.28,0,0,1,1.93.84l.7.36c4.49,2.47,6.86,7.61,6.86,7.61h-3s-2.39-4.68-5.41-5.87l-.23-.08c-1.06-.45-1.37-1.22-1.83-1.52s-1.25-.33-3,.74a26.73,26.73,0,0,0-14.2-5.23c-.77,0-1.52,0-2.24,0a7.91,7.91,0,0,0-2.51-1.69,5.75,5.75,0,0,0-1.29-.4c-3.82-.43-7.25-1.79-11.06-2.25-4.85-.59-10.09-1.61-20.17-3.57C343.05,68.87,333.08,66,333.17,65.61Z"/>
            <path d="M337.19,64.43c.22-.37,9.34,4.39,47.22,26.2l5.62,1.6,13.9,10.61-.32,1.64a19.48,19.48,0,0,1,1.55,1.42s.28.28.54.57c3.46,3.78,4,9.41,4,9.41l-2.83-1s-.74-5.19-3.22-7.3l-.18-.15c-.86-.76-.91-1.6-1.25-2s-1.08-.71-3.07-.26a26.69,26.69,0,0,0-11.74-9.55c-.71-.28-1.42-.52-2.12-.72a7.63,7.63,0,0,0-1.83-2.41,5.39,5.39,0,0,0-1.09-.8c-3.46-1.65-6.27-4.05-9.72-5.72-4.4-2.12-9-4.79-17.93-9.91C345.48,70.71,337,64.8,337.19,64.43Z"/>
            <path d="M213.35,405.74c-13.79,26.71,16.82,45.84,16.44,102.37-.17,26.38-4.48,56-4.48,56a38.88,38.88,0,0,1-9,23.91l-3,2.24a275.5,275.5,0,0,1-.74,62,274.72,274.72,0,0,1-9.72,45.58,37.76,37.76,0,0,1-11.95,15c-9.18,6.63-17,5.2-22.42,11.95-2.29,2.88-4.68,7.92-3.74,17.19l20.18-.75c5-1.74,10.26-3.72,15.69-6,5.86-2.44,11.34-5,16.44-7.48q.75,6.74,1.49,13.45h24.66q-2.24-7.1-4.48-14.19a109.41,109.41,0,0,1-2.24-20.18c-.48-28.25,10.59-36.55,16.44-71.73a261,261,0,0,0,3-42.43v-.16a218.51,218.51,0,0,1,5.23-31.39C268,533,276.6,522.27,284.34,502.88c13.11-32.83,21.89-85.7-2.24-111.34-2.27-2.41-8.65-9-18.68-11.2C245.37,376.44,222.26,388.49,213.35,405.74Z"/>
            <path d="M254.43,415.77c-3.55,29.84,31.81,37,51.28,90.11,9.09,24.76,15.45,54,15.45,54a38.71,38.71,0,0,1,2,10,39.25,39.25,0,0,1-2.07,15.53L318,588.06A259,259,0,0,1,340.17,647a257.91,257.91,0,0,1,6.89,46.09,37.81,37.81,0,0,1-6,18.19c-6.27,9.42-14.13,10.85-16.8,19.06-1.14,3.5-1.61,9.06,2.52,17.4l18.63-7.77c4.09-3.39,8.31-7.08,12.6-11.1,4.64-4.34,8.89-8.62,12.78-12.76L377,728.14,400,719.5l-9.18-11.73a108.69,108.69,0,0,1-9.17-18.11c-10.35-26.29-2.89-37.94-9.75-72.94a260.88,260.88,0,0,0-12.07-40.79h0a1.21,1.21,0,0,1-.05-.14,218,218,0,0,1-6.11-31.22c-3.47-28.76.81-41.83,1.26-62.71.77-35.34-9.54-87.93-41.13-103.48-3-1.46-11.27-5.43-21.42-3.95C274.14,377.1,256.72,396.49,254.43,415.77Z"/>
            <path d="M304.63,218c-29-22.17-78.89,32.3-169,36.54-39,1.83-71.32-6.39-92.6-13.64L46,252.23a30.24,30.24,0,0,1-13.44.33c-5-1.05-6.66-2.83-11.21-4.48-7.38-2.69-18.81-3.79-20.92,0-2.6,4.64,7.87,18.38,21.67,23.16a36,36,0,0,0,16.46,1.56c6,19.41,5.65,34.66,4.11,45.19C38.13,348.75,20,362.9,23.87,388.1c1.77,11.66,7.46,20.56,12,26.24Q63.59,406.63,92,398.06c58.74-17.74,88.18-26.35,115.83-37.95,59.53-25,93.75-39.35,105.87-73.69C321,265.86,322.58,231.71,304.63,218Z"/>
            <path d="M233.75,262.21c-1.13,0-2.14,0-2.91-.11-9.25-.73-21.55-5.08-25.8-14.93-2.95-6.85-1.6-15.52,3.71-23.8.14-.23.3-.46.45-.69-.07-.59-.14-1.18-.19-1.77-1.33-14.48-.21-20.34,4.13-21.64,3.8-1.13,6.32,2.66,7.82,4.92.9,1.36,2,3.14,3.29,5.38a24.07,24.07,0,0,1,9.2-2.22c6-.14,11.25,1.91,14.55,5.61,7.2,8.1,4.48,22.15-.46,32.59-.45.95-.93,1.9-1.45,2.84,2.2,4.53,2.27,6.54.74,9h0C244.25,261.44,238.06,262.21,233.75,262.21Zm-17.5-37.79a60,60,0,0,0,3.94,13.39c2.72,6.45,7.26,17.24,10.48,17.37,1.47.06,4.55-2.17,7.73-7-1.16-2.12-2.64-4.71-4.3-7.62l-1.86-3.25c-3.12-5.47-5.74-10.12-8-14.05-.88-1.54-1.7-3-2.48-4.38A31.73,31.73,0,0,0,216.25,224.42Zm-4.86,8.73c-1.44,4.2-1.54,8.2-.18,11.35,1.44,3.33,4.49,5.9,8.17,7.71-1.89-3.48-3.62-7.59-5.39-11.79A70.22,70.22,0,0,1,211.39,233.15Zm16.21-17.7,2.54,4.5c2.21,3.92,4.83,8.56,7.94,14l1.85,3.24c.81,1.41,1.56,2.71,2.23,3.91,3.66-8.49,5.24-18.71.81-23.69-2.81-3.16-7.49-3.39-9.36-3.35A16.58,16.58,0,0,0,227.6,215.45Zm-12.26-7.58a53.82,53.82,0,0,0,0,7.65,33.41,33.41,0,0,1,3.1-2.54C217.21,210.85,216.17,209.13,215.34,207.87Z"/>
        </g>
    </g>
</svg>
